<?xml version="1.0" encoding="UTF-8" standalone="no"?><!-- Generator: Gravit.io --><svg xmlns="http://www.w3.org/2000/svg" xmlns:xlink="http://www.w3.org/1999/xlink" style="isolation:isolate" viewBox="0 0 70 70" width="70pt" height="70pt"><defs><clipPath id="_clipPath_63E38lWpZLtesTSjrLK5cpdeJkDW4bzP"><rect width="70" height="70"/></clipPath></defs><g clip-path="url(#_clipPath_63E38lWpZLtesTSjrLK5cpdeJkDW4bzP)"><g><g><defs><linearGradient id="_lgradient_12" x1="0" y1="0.5" x2="1" y2="0.5"><stop offset="2.083333333333333%" style="stop-color:#747474"/><stop offset="9.583333333333334%" style="stop-color:#D1D1D1"/><stop offset="18.75%" style="stop-color:#8B8B8B"/><stop offset="45.416666666666664%" style="stop-color:#747474"/><stop offset="98.33333333333333%" style="stop-color:#A2A2A2"/></linearGradient></defs><path d="M 33.068 0 L 37.312 0 C 38.9 0 40.19 1.29 40.19 2.878 L 40.19 67.122 C 40.19 68.71 38.9 70 37.312 70 L 33.068 70 C 31.48 70 30.19 68.71 30.19 67.122 L 30.19 2.878 C 30.19 1.29 31.48 0 33.068 0 Z" style="stroke:none;fill:url(#_lgradient_12);stroke-miterlimit:10;"/><defs><linearGradient id="_lgradient_13" x1="0" y1="0.5" x2="1" y2="0.5"><stop offset="2.083333333333333%" style="stop-color:#747474"/><stop offset="9.583333333333334%" style="stop-color:#D1D1D1"/><stop offset="18.75%" style="stop-color:#8B8B8B"/><stop offset="45.416666666666664%" style="stop-color:#747474"/><stop offset="98.33333333333333%" style="stop-color:#A2A2A2"/></linearGradient></defs><path d="M 0.19 37.122 L 0.19 32.878 C 0.19 31.29 1.48 30 3.068 30 L 67.312 30 C 68.9 30 70.19 31.29 70.19 32.878 L 70.19 37.122 C 70.19 38.71 68.9 40 67.312 40 L 3.068 40 C 1.48 40 0.19 38.71 0.19 37.122 Z" style="stroke:none;fill:url(#_lgradient_13);stroke-miterlimit:10;"/><defs><linearGradient id="_lgradient_14" x1="0" y1="0.5" x2="1" y2="0.5"><stop offset="2.083333333333333%" style="stop-color:#747474"/><stop offset="9.583333333333334%" style="stop-color:#D1D1D1"/><stop offset="18.75%" style="stop-color:#8B8B8B"/><stop offset="45.416666666666664%" style="stop-color:#747474"/><stop offset="98.33333333333333%" style="stop-color:#A2A2A2"/></linearGradient></defs><path d="M 8.942 11.753 L 11.943 8.752 C 13.066 7.629 14.89 7.629 16.013 8.752 L 61.438 54.177 C 62.561 55.3 62.561 57.124 61.438 58.247 L 58.437 61.248 C 57.314 62.371 55.49 62.371 54.367 61.248 L 8.942 15.823 C 7.819 14.7 7.819 12.876 8.942 11.753 Z" style="stroke:none;fill:url(#_lgradient_14);stroke-miterlimit:10;"/><defs><linearGradient id="_lgradient_15" x1="0" y1="0.5" x2="1" y2="0.5"><stop offset="2.083333333333333%" style="stop-color:#747474"/><stop offset="9.583333333333334%" style="stop-color:#D1D1D1"/><stop offset="18.75%" style="stop-color:#8B8B8B"/><stop offset="45.416666666666664%" style="stop-color:#747474"/><stop offset="98.33333333333333%" style="stop-color:#A2A2A2"/></linearGradient></defs><path d="M 58.437 8.752 L 61.438 11.753 C 62.561 12.876 62.561 14.7 61.438 15.823 L 16.013 61.248 C 14.89 62.371 13.066 62.371 11.943 61.248 L 8.942 58.247 C 7.819 57.124 7.819 55.3 8.942 54.177 L 54.367 8.752 C 55.49 7.629 57.314 7.629 58.437 8.752 Z" style="stroke:none;fill:url(#_lgradient_15);stroke-miterlimit:10;"/><linearGradient id="_lgradient_16" x1="0" y1="0.5" x2="1" y2="0.5" gradientTransform="matrix(50,0,0,50,10.191,10)" gradientUnits="userSpaceOnUse"><stop offset="2.5%" stop-opacity="1" style="stop-color:rgb(162,162,162)"/><stop offset="17.083333333333332%" stop-opacity="1" style="stop-color:rgb(139,139,139)"/><stop offset="23.75%" stop-opacity="1" style="stop-color:rgb(209,209,209)"/><stop offset="34.583333333333336%" stop-opacity="1" style="stop-color:rgb(162,162,162)"/><stop offset="99.16666666666667%" stop-opacity="1" style="stop-color:rgb(139,139,139)"/></linearGradient><circle vector-effect="non-scaling-stroke" cx="35.19089288712247" cy="34.99999999999964" r="25" fill="url(#_lgradient_16)"/><mask id="_mask_0peVepZJRxe50IMRBpmO1mkVdKM56gMG"><circle vector-effect="non-scaling-stroke" cx="35.19089288712246" cy="34.99999999999963" r="20.5" fill="white" stroke="none"/></mask><circle vector-effect="non-scaling-stroke" cx="35.19089288712246" cy="34.99999999999963" r="20.5" fill="rgb(0,0,0)"/><linearGradient id="_lgradient_17" x1="0" y1="0.5" x2="1" y2="0.5"><stop offset="1.6666666666666667%" stop-opacity="1" style="stop-color:rgb(162,162,162)"/><stop offset="16.666666666666664%" stop-opacity="1" style="stop-color:rgb(210,210,210)"/><stop offset="21.25%" stop-opacity="1" style="stop-color:rgb(209,209,209)"/><stop offset="27.083333333333332%" stop-opacity="1" style="stop-color:rgb(139,139,139)"/><stop offset="63.74999999999999%" stop-opacity="1" style="stop-color:rgb(168,168,168)"/><stop offset="100%" stop-opacity="1" style="stop-color:rgb(116,116,116)"/></linearGradient><circle vector-effect="non-scaling-stroke" cx="35.19089288712246" cy="34.99999999999963" r="20.5" fill="rgb(0,0,0)" mask="url(#_mask_0peVepZJRxe50IMRBpmO1mkVdKM56gMG)" stroke-width="4" stroke="url(#_lgradient_17)" stroke-linejoin="miter" stroke-linecap="square" stroke-miterlimit="3"/></g><g><g clip-path="url(#_clipPath_7jkGaP9YfvhzY9Ayl6sx3F009punHTRj)"><text transform="matrix(1,-0.01,0.01,1,20.763,35.624)" style="font-family:'Roboto';font-weight:700;font-size:21px;font-style:normal;fill:#ffffff;stroke:none;">C</text></g><defs><clipPath id="_clipPath_7jkGaP9YfvhzY9Ayl6sx3F009punHTRj"><rect x="0" y="0" width="13.868" height="24.999" transform="matrix(1,-0.01,0.01,1,20.562,16.143)"/></clipPath></defs><g clip-path="url(#_clipPath_M0IQOHtPqHGP8xJkHfQedUalKIpQ50Rg)"><text transform="matrix(1,-0.01,0.01,1,35.751,49.201)" style="font-family:'Roboto';font-weight:700;font-size:21px;font-style:normal;fill:#FFFFFF;stroke:none;">C</text></g><defs><clipPath id="_clipPath_M0IQOHtPqHGP8xJkHfQedUalKIpQ50Rg"><rect x="0" y="0" width="13.868" height="24.999" transform="matrix(1,-0.01,0.01,1,35.55,29.72)"/></clipPath></defs><g clip-path="url(#_clipPath_f7jjftVm5W0WbRIcCzPPoFg0w9XXbzU2)"><text transform="matrix(0.5,-0.866,0.866,0.5,36.9,40.605)" style="font-family:'Roboto';font-weight:400;font-size:11px;font-style:normal;fill:#ffffff;stroke:none;">S</text></g><defs><clipPath id="_clipPath_f7jjftVm5W0WbRIcCzPPoFg0w9XXbzU2"><rect x="0" y="0" width="13.868" height="24.999" transform="matrix(0.5,-0.866,0.866,0.5,28.062,35.502)"/></clipPath></defs></g></g></g></svg>