<?xml version="1.0" encoding="UTF-8" standalone="no"?><!-- Generator: Gravit.io --><svg xmlns="http://www.w3.org/2000/svg" xmlns:xlink="http://www.w3.org/1999/xlink" style="isolation:isolate" viewBox="0 0 140 70" width="140pt" height="70pt"><defs><clipPath id="_clipPath_bFtZ3hys8Wv8X8kAuhD5BZxWx1v7KleX"><rect width="140" height="70"/></clipPath></defs><g clip-path="url(#_clipPath_bFtZ3hys8Wv8X8kAuhD5BZxWx1v7KleX)"><g><g><path d=" M 137.612 12 L 72.612 12 Q 53.631 49.676 43.612 45 C 36.808 41.825 39.812 42.902 17.612 33 C -4.588 23.098 44.32 3.333 7 2" fill="none" vector-effect="non-scaling-stroke" stroke-width="2" stroke="rgb(0,150,136)" stroke-linejoin="miter" stroke-linecap="square" stroke-miterlimit="3"/><path d=" M 137.612 19 L 73.265 19 Q 75.274 28.667 37.612 19 C 4.776 10.572 41.905 32 20.796 33 C -0.313 34 39.32 17.333 2 16" fill="none" vector-effect="non-scaling-stroke" stroke-width="2" stroke="rgb(133,89,244)" stroke-linejoin="miter" stroke-linecap="square" stroke-miterlimit="3"/><path d=" M 137.612 26 L 73.265 26 Q 65.7 32.667 28.037 23 C -4.798 14.572 36.279 62.667 10.177 57 C -15.924 51.333 38.32 32.333 1 31" fill="none" vector-effect="non-scaling-stroke" stroke-width="2" stroke="rgb(255,153,0)" stroke-linejoin="miter" stroke-linecap="square" stroke-miterlimit="3"/><path d=" M 137.612 40 L 72.612 40 Q 76.274 21.667 38.612 12 C 5.776 3.572 55.347 62.667 28 68" fill="none" vector-effect="non-scaling-stroke" stroke-width="2" stroke="rgb(0,150,22)" stroke-linejoin="miter" stroke-linecap="square" stroke-miterlimit="3"/><path d=" M 137.612 47.664 L 73.265 47.664 Q 49.321 82.205 28.037 49.664 C 15.612 30.667 -10.681 66.958 5.612 61 C 21.905 55.042 13.828 42.911 4.599 40.368 C 3.368 40.028 3.249 40.08 1 40" fill="none" vector-effect="non-scaling-stroke" stroke-width="2" stroke="rgb(255,255,0)" stroke-linejoin="miter" stroke-linecap="square" stroke-miterlimit="3"/><path d=" M 137.612 33 L 72.612 33 Q -6.659 38.298 28.612 54.664 C 63.095 70.664 30.549 11.333 12.612 17 C -5.324 22.667 47.32 67.333 10 66" fill="none" vector-effect="non-scaling-stroke" stroke-width="2" stroke="rgb(255,0,0)" stroke-linejoin="miter" stroke-linecap="square" stroke-miterlimit="3"/><path d=" M 137.612 54.664 L 73.265 54.664 Q 58.458 70.667 20.796 61 C -12.04 52.572 52.279 53 30.612 44 C 8.945 35 38.32 50.333 1 49" fill="none" vector-effect="non-scaling-stroke" stroke-width="2" stroke="rgb(0,55,150)" stroke-linejoin="miter" stroke-linecap="square" stroke-miterlimit="3"/></g><g><defs><linearGradient id="_lgradient_6" x1="0" y1="0.5" x2="1" y2="0.5"><stop offset="2.083333333333333%" style="stop-color:#747474"/><stop offset="9.583333333333334%" style="stop-color:#D1D1D1"/><stop offset="18.75%" style="stop-color:#8B8B8B"/><stop offset="45.416666666666664%" style="stop-color:#747474"/><stop offset="98.33333333333333%" style="stop-color:#A2A2A2"/></linearGradient></defs><path d="M 71.068 0 L 75.312 0 C 76.9 0 78.19 1.29 78.19 2.878 L 78.19 67.122 C 78.19 68.71 76.9 70 75.312 70 L 71.068 70 C 69.48 70 68.19 68.71 68.19 67.122 L 68.19 2.878 C 68.19 1.29 69.48 0 71.068 0 Z" style="stroke:none;fill:url(#_lgradient_6);stroke-miterlimit:10;"/><defs><linearGradient id="_lgradient_7" x1="0" y1="0.5" x2="1" y2="0.5"><stop offset="2.083333333333333%" style="stop-color:#747474"/><stop offset="9.583333333333334%" style="stop-color:#D1D1D1"/><stop offset="18.75%" style="stop-color:#8B8B8B"/><stop offset="45.416666666666664%" style="stop-color:#747474"/><stop offset="98.33333333333333%" style="stop-color:#A2A2A2"/></linearGradient></defs><path d="M 38.19 37.122 L 38.19 32.878 C 38.19 31.29 39.48 30 41.068 30 L 105.312 30 C 106.9 30 108.19 31.29 108.19 32.878 L 108.19 37.122 C 108.19 38.71 106.9 40 105.312 40 L 41.068 40 C 39.48 40 38.19 38.71 38.19 37.122 Z" style="stroke:none;fill:url(#_lgradient_7);stroke-miterlimit:10;"/><defs><linearGradient id="_lgradient_8" x1="0" y1="0.5" x2="1" y2="0.5"><stop offset="2.083333333333333%" style="stop-color:#747474"/><stop offset="9.583333333333334%" style="stop-color:#D1D1D1"/><stop offset="18.75%" style="stop-color:#8B8B8B"/><stop offset="45.416666666666664%" style="stop-color:#747474"/><stop offset="98.33333333333333%" style="stop-color:#A2A2A2"/></linearGradient></defs><path d="M 46.942 11.753 L 49.943 8.752 C 51.066 7.629 52.89 7.629 54.013 8.752 L 99.438 54.177 C 100.561 55.3 100.561 57.124 99.438 58.247 L 96.437 61.248 C 95.314 62.371 93.49 62.371 92.367 61.248 L 46.942 15.823 C 45.819 14.7 45.819 12.876 46.942 11.753 Z" style="stroke:none;fill:url(#_lgradient_8);stroke-miterlimit:10;"/><defs><linearGradient id="_lgradient_9" x1="0" y1="0.5" x2="1" y2="0.5"><stop offset="2.083333333333333%" style="stop-color:#747474"/><stop offset="9.583333333333334%" style="stop-color:#D1D1D1"/><stop offset="18.75%" style="stop-color:#8B8B8B"/><stop offset="45.416666666666664%" style="stop-color:#747474"/><stop offset="98.33333333333333%" style="stop-color:#A2A2A2"/></linearGradient></defs><path d="M 96.437 8.752 L 99.438 11.753 C 100.561 12.876 100.561 14.7 99.438 15.823 L 54.013 61.248 C 52.89 62.371 51.066 62.371 49.943 61.248 L 46.942 58.247 C 45.819 57.124 45.819 55.3 46.942 54.177 L 92.367 8.752 C 93.49 7.629 95.314 7.629 96.437 8.752 Z" style="stroke:none;fill:url(#_lgradient_9);stroke-miterlimit:10;"/><linearGradient id="_lgradient_10" x1="0" y1="0.5" x2="1" y2="0.5" gradientTransform="matrix(50,0,0,50,48.191,10)" gradientUnits="userSpaceOnUse"><stop offset="2.5%" stop-opacity="1" style="stop-color:rgb(162,162,162)"/><stop offset="17.083333333333332%" stop-opacity="1" style="stop-color:rgb(139,139,139)"/><stop offset="23.75%" stop-opacity="1" style="stop-color:rgb(209,209,209)"/><stop offset="34.583333333333336%" stop-opacity="1" style="stop-color:rgb(162,162,162)"/><stop offset="99.16666666666667%" stop-opacity="1" style="stop-color:rgb(139,139,139)"/></linearGradient><circle vector-effect="non-scaling-stroke" cx="73.19089288712247" cy="34.99999999999964" r="25" fill="url(#_lgradient_10)"/><mask id="_mask_EZYvQTvlHqRKkDgZrAsd1aH1UBOlePHJ"><circle vector-effect="non-scaling-stroke" cx="73.19089288712246" cy="34.99999999999963" r="20.5" fill="white" stroke="none"/></mask><circle vector-effect="non-scaling-stroke" cx="73.19089288712246" cy="34.99999999999963" r="20.5" fill="rgb(0,0,0)"/><linearGradient id="_lgradient_11" x1="0" y1="0.5" x2="1" y2="0.5"><stop offset="1.6666666666666667%" stop-opacity="1" style="stop-color:rgb(162,162,162)"/><stop offset="16.666666666666664%" stop-opacity="1" style="stop-color:rgb(210,210,210)"/><stop offset="21.25%" stop-opacity="1" style="stop-color:rgb(209,209,209)"/><stop offset="27.083333333333332%" stop-opacity="1" style="stop-color:rgb(139,139,139)"/><stop offset="63.74999999999999%" stop-opacity="1" style="stop-color:rgb(168,168,168)"/><stop offset="100%" stop-opacity="1" style="stop-color:rgb(116,116,116)"/></linearGradient><circle vector-effect="non-scaling-stroke" cx="73.19089288712246" cy="34.99999999999963" r="20.5" fill="rgb(0,0,0)" mask="url(#_mask_EZYvQTvlHqRKkDgZrAsd1aH1UBOlePHJ)" stroke-width="4" stroke="url(#_lgradient_11)" stroke-linejoin="miter" stroke-linecap="square" stroke-miterlimit="3"/></g><g><g clip-path="url(#_clipPath_jvsmnXsQqoswGNWYb2VSGgWMy4hK8v3H)"><text transform="matrix(1,-0.01,0.01,1,58.763,35.624)" style="font-family:'Roboto';font-weight:700;font-size:21px;font-style:normal;fill:#ffffff;stroke:none;">C</text></g><defs><clipPath id="_clipPath_jvsmnXsQqoswGNWYb2VSGgWMy4hK8v3H"><rect x="0" y="0" width="13.868" height="24.999" transform="matrix(1,-0.01,0.01,1,58.562,16.143)"/></clipPath></defs><g clip-path="url(#_clipPath_LhwouPJByEhdDAqf0Q5rjmIBIkq6VGb8)"><text transform="matrix(1,-0.01,0.01,1,73.751,49.201)" style="font-family:'Roboto';font-weight:700;font-size:21px;font-style:normal;fill:#FFFFFF;stroke:none;">C</text></g><defs><clipPath id="_clipPath_LhwouPJByEhdDAqf0Q5rjmIBIkq6VGb8"><rect x="0" y="0" width="13.868" height="24.999" transform="matrix(1,-0.01,0.01,1,73.55,29.72)"/></clipPath></defs><g clip-path="url(#_clipPath_oClxnAljCc2FnRWIO157HOMNjGUF2JFT)"><text transform="matrix(0.5,-0.866,0.866,0.5,74.9,40.605)" style="font-family:'Roboto';font-weight:400;font-size:11px;font-style:normal;fill:#ffffff;stroke:none;">S</text></g><defs><clipPath id="_clipPath_oClxnAljCc2FnRWIO157HOMNjGUF2JFT"><rect x="0" y="0" width="13.868" height="24.999" transform="matrix(0.5,-0.866,0.866,0.5,66.062,35.502)"/></clipPath></defs></g></g></g></svg>